<?xml version="1.0" ?><!DOCTYPE svg  PUBLIC '-//W3C//DTD SVG 1.1//EN'  'http://www.w3.org/Graphics/SVG/1.1/DTD/svg11.dtd'><svg enable-background="new 0 0 512 512" height="512px" id="Layer_1" version="1.1" viewBox="0 0 512 512" width="512px" xml:space="preserve" xmlns="http://www.w3.org/2000/svg" xmlns:xlink="http://www.w3.org/1999/xlink"><g><path clip-rule="evenodd" d="M512,486.595V25.706C512,11.49,500.503,0,486.591,0H25.701   C11.487,0,0,11.49,0,25.706v460.89C0,500.519,11.487,512,25.701,512h460.89C500.503,512,512,500.519,512,486.595L512,486.595z    M294.552,209.575l127.016-41.425l23.899,73.488l-127.026,41.123l78.332,107.96l-62.295,45.38L256.146,328.12l-78.321,107.981   l-62.607-45.38l78.332-107.96L66.835,241.639l23.889-73.488l126.714,41.425V76.211h77.114V209.575z" fill="#040404" fill-rule="evenodd"/></g></svg>